<?xml version="1.0" standalone="no"?>
<!DOCTYPE svg PUBLIC "-//W3C//DTD SVG 20010904//EN"
 "http://www.w3.org/TR/2001/REC-SVG-20010904/DTD/svg10.dtd">
<svg version="1.0" xmlns="http://www.w3.org/2000/svg"
 width="260.000000pt" height="260.000000pt" viewBox="0 0 260.000000 260.000000"
 preserveAspectRatio="xMidYMid meet">
<metadata>
Created by potrace 1.14, written by Peter Selinger 2001-2017
</metadata>
<g transform="translate(0.000000,260.000000) scale(0.100000,-0.100000)"
fill="#000000" stroke="none">
<path d="M0 1300 l0 -1300 1300 0 1300 0 0 1300 0 1300 -1300 0 -1300 0 0
-1300z m1055 990 c171 -25 311 -90 350 -162 l20 -37 -21 -28 c-29 -39 -72 -42
-112 -8 -79 66 -226 105 -395 105 -231 -1 -367 -65 -444 -211 -25 -48 -28 -64
-27 -139 1 -92 14 -136 60 -196 64 -83 232 -174 559 -304 372 -148 473 -221
534 -386 52 -136 33 -256 -61 -399 -59 -90 -184 -226 -240 -261 -92 -59 -273
-91 -417 -74 -215 25 -427 143 -552 308 -54 72 -62 109 -29 142 33 33 75 26
107 -17 88 -116 183 -192 306 -247 85 -37 155 -51 262 -50 117 1 191 20 261
66 62 43 175 183 221 275 32 65 35 78 30 129 -8 74 -48 155 -99 198 -56 49
-164 102 -363 181 -478 189 -634 298 -696 482 -45 134 -27 284 46 398 89 137
223 215 410 238 64 8 223 6 290 -3z m1018 -12 c9 -7 27 -27 39 -45 13 -17 66
-83 119 -145 147 -174 219 -275 219 -308 0 -35 -34 -70 -67 -70 -30 0 -45 16
-161 167 -51 66 -99 126 -107 133 -13 11 -15 -92 -15 -888 l0 -901 -26 -20
c-33 -26 -45 -26 -78 0 l-26 20 0 907 -1 907 -41 -45 c-22 -25 -78 -97 -123
-160 -99 -137 -114 -153 -151 -148 -35 4 -69 48 -61 80 13 50 370 506 410 521
23 10 53 7 70 -5z"/>
</g>
</svg>
